<svg width="1440" height="149" viewBox="0 0 1440 149" fill="none" xmlns="http://www.w3.org/2000/svg">
<mask id="path-1-inside-1_18_348" fill="white">
<path d="M0 0H1441V82H0V0Z"/>
</mask>
<path d="M0 0H1441V82H0V0Z" fill="#191919"/>
<path d="M1441 82V81H0V82V83H1441V82Z" fill="#F4F4F5" mask="url(#path-1-inside-1_18_348)"/>
<mask id="path-3-inside-2_18_348" fill="white">
<path d="M0 82H1440V149H0V82Z"/>
</mask>
<path d="M0 82H1440V149H0V82Z" fill="white"/>
<path d="M1440 149V148H0V149V150H1440V149Z" fill="#F4F4F5" mask="url(#path-3-inside-2_18_348)"/>
<rect x="78" y="96" width="170" height="38" rx="8" fill="#F5F5F5"/>
<path d="M120.209 123.773V120.716C120.209 119.935 120.846 119.302 121.633 119.302H124.507C124.884 119.302 125.247 119.451 125.514 119.716C125.781 119.981 125.931 120.341 125.931 120.716V123.773C125.928 124.098 126.056 124.41 126.287 124.64C126.517 124.871 126.83 125 127.157 125H129.118C130.034 125.002 130.913 124.643 131.561 124.001C132.21 123.359 132.574 122.487 132.574 121.578V112.867C132.574 112.132 132.246 111.436 131.679 110.965L125.008 105.676C123.848 104.749 122.185 104.779 121.06 105.747L114.541 110.965C113.947 111.422 113.592 112.121 113.574 112.867V121.569C113.574 123.464 115.122 125 117.03 125H118.947C119.625 125 120.177 124.456 120.182 123.782L120.209 123.773Z" fill="#191919"/>
<path d="M144.18 120V110.06H147.456C148.884 110.06 150.093 110.541 151.082 111.502C152.072 112.463 152.566 113.639 152.566 115.03C152.566 116.421 152.072 117.597 151.082 118.558C150.093 119.519 148.884 120 147.456 120H144.18ZM146.21 118.138H147.456C148.362 118.138 149.099 117.839 149.668 117.242C150.238 116.645 150.522 115.907 150.522 115.03C150.522 114.153 150.238 113.415 149.668 112.818C149.099 112.221 148.362 111.922 147.456 111.922H146.21V118.138ZM156.862 120.154C155.938 120.154 155.158 119.795 154.524 119.076C153.889 118.357 153.572 117.499 153.572 116.5C153.572 115.501 153.889 114.643 154.524 113.924C155.158 113.205 155.938 112.846 156.862 112.846C157.31 112.846 157.711 112.939 158.066 113.126C158.42 113.313 158.691 113.532 158.878 113.784V113H160.796V120H158.878V119.216C158.691 119.468 158.42 119.687 158.066 119.874C157.711 120.061 157.31 120.154 156.862 120.154ZM155.98 117.872C156.306 118.227 156.736 118.404 157.268 118.404C157.8 118.404 158.224 118.227 158.542 117.872C158.868 117.517 159.032 117.06 159.032 116.5C159.032 115.94 158.868 115.483 158.542 115.128C158.224 114.773 157.8 114.596 157.268 114.596C156.736 114.596 156.306 114.773 155.98 115.128C155.662 115.483 155.504 115.94 155.504 116.5C155.504 117.06 155.662 117.517 155.98 117.872ZM165.012 120.154C163.687 120.154 162.726 119.706 162.128 118.81L163.444 117.69C163.78 118.231 164.303 118.502 165.012 118.502C165.227 118.502 165.409 118.46 165.558 118.376C165.708 118.292 165.782 118.166 165.782 117.998C165.782 117.849 165.717 117.727 165.586 117.634C165.465 117.531 165.218 117.429 164.844 117.326L164.326 117.2C163.682 117.032 163.192 116.752 162.856 116.36C162.53 115.968 162.376 115.501 162.394 114.96C162.413 114.325 162.665 113.817 163.15 113.434C163.645 113.042 164.27 112.846 165.026 112.846C166.1 112.846 166.907 113.238 167.448 114.022L166.188 115.044C165.862 114.633 165.465 114.428 164.998 114.428C164.812 114.428 164.648 114.47 164.508 114.554C164.368 114.638 164.298 114.755 164.298 114.904C164.298 115.184 164.527 115.385 164.984 115.506L165.642 115.702C166.996 116.066 167.672 116.789 167.672 117.872C167.672 118.535 167.42 119.081 166.916 119.51C166.412 119.939 165.778 120.154 165.012 120.154ZM171.004 120H169.086V109.5H171.004V113.798C171.433 113.163 172.101 112.846 173.006 112.846C173.846 112.846 174.504 113.126 174.98 113.686C175.465 114.237 175.708 114.974 175.708 115.898V120H173.79V116.22C173.79 115.707 173.683 115.31 173.468 115.03C173.253 114.741 172.95 114.596 172.558 114.596C172.091 114.596 171.713 114.764 171.424 115.1C171.144 115.436 171.004 115.931 171.004 116.584V120ZM181.415 120.154C180.967 120.154 180.561 120.061 180.197 119.874C179.833 119.687 179.562 119.468 179.385 119.216V120H177.467V109.5H179.385V113.784C179.562 113.532 179.833 113.313 180.197 113.126C180.561 112.939 180.967 112.846 181.415 112.846C182.339 112.846 183.118 113.205 183.753 113.924C184.388 114.643 184.705 115.501 184.705 116.5C184.705 117.499 184.388 118.357 183.753 119.076C183.118 119.795 182.339 120.154 181.415 120.154ZM179.707 117.872C180.034 118.227 180.463 118.404 180.995 118.404C181.527 118.404 181.952 118.227 182.269 117.872C182.596 117.517 182.759 117.06 182.759 116.5C182.759 115.94 182.596 115.483 182.269 115.128C181.952 114.773 181.527 114.596 180.995 114.596C180.463 114.596 180.034 114.773 179.707 115.128C179.39 115.483 179.231 115.94 179.231 116.5C179.231 117.06 179.39 117.517 179.707 117.872ZM191.932 119.104C191.213 119.804 190.345 120.154 189.328 120.154C188.31 120.154 187.442 119.804 186.724 119.104C186.005 118.395 185.646 117.527 185.646 116.5C185.646 115.483 186.005 114.619 186.724 113.91C187.442 113.201 188.31 112.846 189.328 112.846C190.345 112.846 191.213 113.201 191.932 113.91C192.65 114.619 193.01 115.483 193.01 116.5C193.01 117.527 192.65 118.395 191.932 119.104ZM189.328 118.362C189.822 118.362 190.233 118.189 190.56 117.844C190.896 117.489 191.064 117.041 191.064 116.5C191.064 115.959 190.896 115.515 190.56 115.17C190.233 114.815 189.822 114.638 189.328 114.638C188.824 114.638 188.404 114.815 188.068 115.17C187.741 115.515 187.578 115.959 187.578 116.5C187.578 117.041 187.741 117.489 188.068 117.844C188.404 118.189 188.824 118.362 189.328 118.362ZM197.235 120.154C196.311 120.154 195.531 119.795 194.897 119.076C194.262 118.357 193.945 117.499 193.945 116.5C193.945 115.501 194.262 114.643 194.897 113.924C195.531 113.205 196.311 112.846 197.235 112.846C197.683 112.846 198.084 112.939 198.439 113.126C198.793 113.313 199.064 113.532 199.251 113.784V113H201.169V120H199.251V119.216C199.064 119.468 198.793 119.687 198.439 119.874C198.084 120.061 197.683 120.154 197.235 120.154ZM196.353 117.872C196.679 118.227 197.109 118.404 197.641 118.404C198.173 118.404 198.597 118.227 198.915 117.872C199.241 117.517 199.405 117.06 199.405 116.5C199.405 115.94 199.241 115.483 198.915 115.128C198.597 114.773 198.173 114.596 197.641 114.596C197.109 114.596 196.679 114.773 196.353 115.128C196.035 115.483 195.877 115.94 195.877 116.5C195.877 117.06 196.035 117.517 196.353 117.872ZM203.033 120V113H204.951V114.12C205.073 113.775 205.292 113.49 205.609 113.266C205.936 113.033 206.295 112.916 206.687 112.916C206.93 112.916 207.145 112.944 207.331 113V114.946C207.023 114.843 206.734 114.792 206.463 114.792C206.006 114.792 205.637 114.96 205.357 115.296C205.087 115.623 204.951 116.075 204.951 116.654V120H203.033ZM211.153 120.154C210.229 120.154 209.449 119.795 208.815 119.076C208.18 118.357 207.863 117.499 207.863 116.5C207.863 115.501 208.18 114.643 208.815 113.924C209.449 113.205 210.229 112.846 211.153 112.846C211.601 112.846 212.002 112.939 212.357 113.126C212.711 113.313 212.982 113.532 213.169 113.784V109.5H215.087V120H213.169V119.216C212.982 119.468 212.711 119.687 212.357 119.874C212.002 120.061 211.601 120.154 211.153 120.154ZM210.271 117.872C210.597 118.227 211.027 118.404 211.559 118.404C212.091 118.404 212.515 118.227 212.833 117.872C213.159 117.517 213.323 117.06 213.323 116.5C213.323 115.94 213.159 115.483 212.833 115.128C212.515 114.773 212.091 114.596 211.559 114.596C211.027 114.596 210.597 114.773 210.271 115.128C209.953 115.483 209.795 115.94 209.795 116.5C209.795 117.06 209.953 117.517 210.271 117.872Z" fill="#191919"/>
<rect x="269" y="96" width="170" height="38" rx="8" fill="white"/>
<path d="M334 109H329.5V108.25C329.5 107.653 329.263 107.081 328.841 106.659C328.419 106.237 327.847 106 327.25 106H322.75C322.153 106 321.581 106.237 321.159 106.659C320.737 107.081 320.5 107.653 320.5 108.25V109H316C315.602 109 315.221 109.158 314.939 109.439C314.658 109.721 314.5 110.102 314.5 110.5V121C314.5 121.398 314.658 121.779 314.939 122.061C315.221 122.342 315.602 122.5 316 122.5H334C334.398 122.5 334.779 122.342 335.061 122.061C335.342 121.779 335.5 121.398 335.5 121V110.5C335.5 110.102 335.342 109.721 335.061 109.439C334.779 109.158 334.398 109 334 109ZM322 108.25C322 108.051 322.079 107.86 322.22 107.72C322.36 107.579 322.551 107.5 322.75 107.5H327.25C327.449 107.5 327.64 107.579 327.78 107.72C327.921 107.86 328 108.051 328 108.25V109H322V108.25ZM334 110.5V113.5H331V112.75C331 112.551 330.921 112.36 330.78 112.22C330.64 112.079 330.449 112 330.25 112C330.051 112 329.86 112.079 329.72 112.22C329.579 112.36 329.5 112.551 329.5 112.75V113.5H320.5V112.75C320.5 112.551 320.421 112.36 320.28 112.22C320.14 112.079 319.949 112 319.75 112C319.551 112 319.36 112.079 319.22 112.22C319.079 112.36 319 112.551 319 112.75V113.5H316V110.5H334ZM334 121H316V115H319V115.75C319 115.949 319.079 116.14 319.22 116.28C319.36 116.421 319.551 116.5 319.75 116.5C319.949 116.5 320.14 116.421 320.28 116.28C320.421 116.14 320.5 115.949 320.5 115.75V115H329.5V115.75C329.5 115.949 329.579 116.14 329.72 116.28C329.86 116.421 330.051 116.5 330.25 116.5C330.449 116.5 330.64 116.421 330.78 116.28C330.921 116.14 331 115.949 331 115.75V115H334V121Z" fill="#111111"/>
<path d="M346.316 120V110.06H347.618V118.768H352.42V120H346.316ZM355.008 110.886C354.85 111.045 354.649 111.124 354.406 111.124C354.164 111.124 353.958 111.045 353.79 110.886C353.622 110.718 353.538 110.513 353.538 110.27C353.538 110.037 353.622 109.836 353.79 109.668C353.958 109.5 354.164 109.416 354.406 109.416C354.649 109.416 354.85 109.5 355.008 109.668C355.167 109.836 355.246 110.037 355.246 110.27C355.246 110.513 355.167 110.718 355.008 110.886ZM353.79 120V113H354.994V120H353.79ZM359.391 120.14C358.747 120.14 358.182 120.005 357.697 119.734C357.211 119.454 356.861 119.048 356.647 118.516L357.627 117.97C357.757 118.315 357.986 118.586 358.313 118.782C358.639 118.978 359.003 119.076 359.405 119.076C359.75 119.076 360.039 118.992 360.273 118.824C360.506 118.656 360.623 118.427 360.623 118.138C360.623 117.886 360.529 117.676 360.343 117.508C360.165 117.34 359.853 117.186 359.405 117.046L358.705 116.822C357.538 116.486 356.955 115.805 356.955 114.778C356.955 114.199 357.183 113.737 357.641 113.392C358.107 113.037 358.681 112.86 359.363 112.86C360.427 112.86 361.197 113.266 361.673 114.078L360.777 114.694C360.394 114.162 359.909 113.896 359.321 113.896C359.003 113.896 358.728 113.975 358.495 114.134C358.271 114.283 358.159 114.484 358.159 114.736C358.159 114.969 358.229 115.17 358.369 115.338C358.518 115.497 358.779 115.632 359.153 115.744L359.923 115.982C361.192 116.374 361.827 117.06 361.827 118.04C361.827 118.693 361.598 119.207 361.141 119.58C360.693 119.953 360.109 120.14 359.391 120.14ZM366.227 120.07C365.583 120.07 365.065 119.888 364.673 119.524C364.281 119.16 364.085 118.628 364.085 117.928V114.106H362.601V113H364.085V111.054H365.289V113H367.305V114.106H365.289V117.774C365.289 118.213 365.382 118.521 365.569 118.698C365.756 118.875 366.05 118.964 366.451 118.964C366.806 118.964 367.09 118.917 367.305 118.824V119.902C366.969 120.014 366.61 120.07 366.227 120.07ZM370.061 110.886C369.902 111.045 369.702 111.124 369.459 111.124C369.216 111.124 369.011 111.045 368.843 110.886C368.675 110.718 368.591 110.513 368.591 110.27C368.591 110.037 368.675 109.836 368.843 109.668C369.011 109.5 369.216 109.416 369.459 109.416C369.702 109.416 369.902 109.5 370.061 109.668C370.22 109.836 370.299 110.037 370.299 110.27C370.299 110.513 370.22 110.718 370.061 110.886ZM368.843 120V113H370.047V120H368.843ZM372.329 120V113H373.533V114.078C374.009 113.266 374.751 112.86 375.759 112.86C376.553 112.86 377.192 113.117 377.677 113.63C378.163 114.143 378.405 114.829 378.405 115.688V120H377.215V115.87C377.215 115.282 377.066 114.82 376.767 114.484C376.469 114.139 376.067 113.966 375.563 113.966C374.985 113.966 374.499 114.195 374.107 114.652C373.725 115.109 373.533 115.735 373.533 116.528V120H372.329ZM381.917 118.18C382.356 118.637 382.925 118.866 383.625 118.866C384.325 118.866 384.895 118.637 385.333 118.18C385.772 117.713 385.991 117.125 385.991 116.416C385.991 115.707 385.767 115.123 385.319 114.666C384.881 114.199 384.316 113.966 383.625 113.966C382.935 113.966 382.365 114.199 381.917 114.666C381.479 115.123 381.259 115.707 381.259 116.416C381.259 117.125 381.479 117.713 381.917 118.18ZM383.555 123.066C382.837 123.066 382.188 122.931 381.609 122.66C381.031 122.399 380.583 122.058 380.265 121.638L381.105 120.798C381.721 121.582 382.538 121.974 383.555 121.974C384.209 121.974 384.759 121.769 385.207 121.358C385.665 120.947 385.893 120.345 385.893 119.552V118.754C385.641 119.127 385.301 119.426 384.871 119.65C384.442 119.874 383.971 119.986 383.457 119.986C382.477 119.986 381.661 119.645 381.007 118.964C380.354 118.273 380.027 117.424 380.027 116.416C380.027 115.417 380.354 114.577 381.007 113.896C381.67 113.205 382.487 112.86 383.457 112.86C383.971 112.86 384.442 112.972 384.871 113.196C385.301 113.42 385.641 113.714 385.893 114.078V113H387.097V119.594C387.097 120.723 386.766 121.582 386.103 122.17C385.45 122.767 384.601 123.066 383.555 123.066ZM391.478 120.14C390.834 120.14 390.27 120.005 389.784 119.734C389.299 119.454 388.949 119.048 388.734 118.516L389.714 117.97C389.845 118.315 390.074 118.586 390.4 118.782C390.727 118.978 391.091 119.076 391.492 119.076C391.838 119.076 392.127 118.992 392.36 118.824C392.594 118.656 392.71 118.427 392.71 118.138C392.71 117.886 392.617 117.676 392.43 117.508C392.253 117.34 391.94 117.186 391.492 117.046L390.792 116.822C389.626 116.486 389.042 115.805 389.042 114.778C389.042 114.199 389.271 113.737 389.728 113.392C390.195 113.037 390.769 112.86 391.45 112.86C392.514 112.86 393.284 113.266 393.76 114.078L392.864 114.694C392.482 114.162 391.996 113.896 391.408 113.896C391.091 113.896 390.816 113.975 390.582 114.134C390.358 114.283 390.246 114.484 390.246 114.736C390.246 114.969 390.316 115.17 390.456 115.338C390.606 115.497 390.867 115.632 391.24 115.744L392.01 115.982C393.28 116.374 393.914 117.06 393.914 118.04C393.914 118.693 393.686 119.207 393.228 119.58C392.78 119.953 392.197 120.14 391.478 120.14Z" fill="#3D3D3D"/>
<rect x="460" y="96" width="170" height="38" rx="8" fill="white"/>
<path d="M522.579 115.056C525.218 115.056 527.357 112.917 527.357 110.278C527.357 107.639 525.218 105.5 522.579 105.5C519.94 105.5 517.801 107.639 517.801 110.278C517.801 112.917 519.94 115.056 522.579 115.056Z" stroke="#3D3D3D" stroke-width="1.5" stroke-linecap="round" stroke-linejoin="round"/>
<path fill-rule="evenodd" clip-rule="evenodd" d="M515 121.702C514.999 121.366 515.074 121.034 515.22 120.731C515.677 119.816 516.968 119.331 518.039 119.111C518.811 118.946 519.594 118.836 520.382 118.782C521.841 118.653 523.308 118.653 524.767 118.782C525.554 118.837 526.337 118.947 527.11 119.111C528.181 119.331 529.471 119.77 529.929 120.731C530.222 121.348 530.222 122.064 529.929 122.681C529.471 123.642 528.181 124.081 527.11 124.292C526.338 124.464 525.555 124.577 524.767 124.631C523.579 124.731 522.387 124.75 521.197 124.686C520.922 124.686 520.657 124.686 520.382 124.631C519.597 124.577 518.816 124.464 518.048 124.292C516.968 124.081 515.687 123.642 515.22 122.681C515.075 122.375 515 122.04 515 121.702Z" stroke="#3D3D3D" stroke-width="1.5" stroke-linecap="round" stroke-linejoin="round"/>
<path d="M550.896 119.076C550.177 119.804 549.239 120.168 548.082 120.168C546.925 120.168 545.987 119.804 545.268 119.076C544.549 118.339 544.19 117.359 544.19 116.136V110.06H545.492V116.164C545.492 117.051 545.725 117.737 546.192 118.222C546.659 118.698 547.289 118.936 548.082 118.936C548.875 118.936 549.505 118.698 549.972 118.222C550.439 117.737 550.672 117.051 550.672 116.164V110.06H551.974V116.136C551.974 117.359 551.615 118.339 550.896 119.076ZM556.242 120.14C555.598 120.14 555.033 120.005 554.548 119.734C554.063 119.454 553.713 119.048 553.498 118.516L554.478 117.97C554.609 118.315 554.837 118.586 555.164 118.782C555.491 118.978 555.855 119.076 556.256 119.076C556.601 119.076 556.891 118.992 557.124 118.824C557.357 118.656 557.474 118.427 557.474 118.138C557.474 117.886 557.381 117.676 557.194 117.508C557.017 117.34 556.704 117.186 556.256 117.046L555.556 116.822C554.389 116.486 553.806 115.805 553.806 114.778C553.806 114.199 554.035 113.737 554.492 113.392C554.959 113.037 555.533 112.86 556.214 112.86C557.278 112.86 558.048 113.266 558.524 114.078L557.628 114.694C557.245 114.162 556.76 113.896 556.172 113.896C555.855 113.896 555.579 113.975 555.346 114.134C555.122 114.283 555.01 114.484 555.01 114.736C555.01 114.969 555.08 115.17 555.22 115.338C555.369 115.497 555.631 115.632 556.004 115.744L556.774 115.982C558.043 116.374 558.678 117.06 558.678 118.04C558.678 118.693 558.449 119.207 557.992 119.58C557.544 119.953 556.961 120.14 556.242 120.14ZM563.511 120.14C562.438 120.14 561.565 119.795 560.893 119.104C560.221 118.413 559.885 117.545 559.885 116.5C559.885 115.464 560.226 114.601 560.907 113.91C561.588 113.21 562.461 112.86 563.525 112.86C564.468 112.86 565.256 113.177 565.891 113.812C566.535 114.437 566.857 115.291 566.857 116.374C566.857 116.514 566.852 116.635 566.843 116.738H561.103C561.122 117.391 561.355 117.937 561.803 118.376C562.26 118.815 562.834 119.034 563.525 119.034C564.505 119.034 565.233 118.628 565.709 117.816L566.661 118.474C565.98 119.585 564.93 120.14 563.511 120.14ZM561.187 115.758H565.625C565.532 115.198 565.284 114.755 564.883 114.428C564.491 114.092 564.024 113.924 563.483 113.924C562.932 113.924 562.438 114.092 561.999 114.428C561.57 114.755 561.299 115.198 561.187 115.758ZM568.566 120V113H569.77V114.358C569.9 113.929 570.152 113.583 570.526 113.322C570.908 113.061 571.31 112.93 571.73 112.93C571.935 112.93 572.117 112.949 572.276 112.986V114.232C572.108 114.157 571.888 114.12 571.618 114.12C571.132 114.12 570.703 114.33 570.33 114.75C569.956 115.17 569.77 115.763 569.77 116.528V120H568.566ZM575.67 120.14C575.026 120.14 574.461 120.005 573.976 119.734C573.491 119.454 573.141 119.048 572.926 118.516L573.906 117.97C574.037 118.315 574.265 118.586 574.592 118.782C574.919 118.978 575.283 119.076 575.684 119.076C576.029 119.076 576.319 118.992 576.552 118.824C576.785 118.656 576.902 118.427 576.902 118.138C576.902 117.886 576.809 117.676 576.622 117.508C576.445 117.34 576.132 117.186 575.684 117.046L574.984 116.822C573.817 116.486 573.234 115.805 573.234 114.778C573.234 114.199 573.463 113.737 573.92 113.392C574.387 113.037 574.961 112.86 575.642 112.86C576.706 112.86 577.476 113.266 577.952 114.078L577.056 114.694C576.673 114.162 576.188 113.896 575.6 113.896C575.283 113.896 575.007 113.975 574.774 114.134C574.55 114.283 574.438 114.484 574.438 114.736C574.438 114.969 574.508 115.17 574.648 115.338C574.797 115.497 575.059 115.632 575.432 115.744L576.202 115.982C577.471 116.374 578.106 117.06 578.106 118.04C578.106 118.693 577.877 119.207 577.42 119.58C576.972 119.953 576.389 120.14 575.67 120.14Z" fill="#3D3D3D"/>
<rect x="651" y="96" width="170" height="38" rx="8" fill="white"/>
<path d="M713.25 106.75H696.75C696.352 106.75 695.971 106.908 695.689 107.189C695.408 107.471 695.25 107.852 695.25 108.25V121.75C695.25 122.148 695.408 122.529 695.689 122.811C695.971 123.092 696.352 123.25 696.75 123.25H713.25C713.648 123.25 714.029 123.092 714.311 122.811C714.592 122.529 714.75 122.148 714.75 121.75V108.25C714.75 107.852 714.592 107.471 714.311 107.189C714.029 106.908 713.648 106.75 713.25 106.75ZM713.25 121.75H696.75V108.25H713.25V121.75ZM710.25 112C710.25 112.199 710.171 112.39 710.03 112.53C709.89 112.671 709.699 112.75 709.5 112.75H700.5C700.301 112.75 700.11 112.671 699.97 112.53C699.829 112.39 699.75 112.199 699.75 112C699.75 111.801 699.829 111.61 699.97 111.47C700.11 111.329 700.301 111.25 700.5 111.25H709.5C709.699 111.25 709.89 111.329 710.03 111.47C710.171 111.61 710.25 111.801 710.25 112ZM710.25 115C710.25 115.199 710.171 115.39 710.03 115.53C709.89 115.671 709.699 115.75 709.5 115.75H700.5C700.301 115.75 700.11 115.671 699.97 115.53C699.829 115.39 699.75 115.199 699.75 115C699.75 114.801 699.829 114.61 699.97 114.47C700.11 114.329 700.301 114.25 700.5 114.25H709.5C709.699 114.25 709.89 114.329 710.03 114.47C710.171 114.61 710.25 114.801 710.25 115ZM710.25 118C710.25 118.199 710.171 118.39 710.03 118.53C709.89 118.671 709.699 118.75 709.5 118.75H700.5C700.301 118.75 700.11 118.671 699.97 118.53C699.829 118.39 699.75 118.199 699.75 118C699.75 117.801 699.829 117.61 699.97 117.47C700.11 117.329 700.301 117.25 700.5 117.25H709.5C709.699 117.25 709.89 117.329 710.03 117.47C710.171 117.61 710.25 117.801 710.25 118Z" fill="#343330"/>
<path d="M726.316 120V110.06H729.704C730.619 110.06 731.342 110.312 731.874 110.816C732.406 111.311 732.672 111.973 732.672 112.804C732.672 113.532 732.453 114.129 732.014 114.596C731.585 115.063 730.983 115.352 730.208 115.464L734.044 120H732.406L728.584 115.478H727.618V120H726.316ZM727.618 114.316H729.55C730.129 114.316 730.577 114.19 730.894 113.938C731.211 113.677 731.37 113.299 731.37 112.804C731.37 112.309 731.211 111.931 730.894 111.67C730.577 111.399 730.129 111.264 729.55 111.264H727.618V114.316ZM737.896 120.14C736.822 120.14 735.95 119.795 735.278 119.104C734.606 118.413 734.27 117.545 734.27 116.5C734.27 115.464 734.61 114.601 735.292 113.91C735.973 113.21 736.846 112.86 737.91 112.86C738.852 112.86 739.641 113.177 740.276 113.812C740.92 114.437 741.242 115.291 741.242 116.374C741.242 116.514 741.237 116.635 741.228 116.738H735.488C735.506 117.391 735.74 117.937 736.188 118.376C736.645 118.815 737.219 119.034 737.91 119.034C738.89 119.034 739.618 118.628 740.094 117.816L741.046 118.474C740.364 119.585 739.314 120.14 737.896 120.14ZM735.572 115.758H740.01C739.916 115.198 739.669 114.755 739.268 114.428C738.876 114.092 738.409 113.924 737.868 113.924C737.317 113.924 736.822 114.092 736.384 114.428C735.954 114.755 735.684 115.198 735.572 115.758ZM749.502 122.926H748.298V118.922C748.056 119.277 747.71 119.571 747.262 119.804C746.824 120.028 746.348 120.14 745.834 120.14C744.864 120.14 744.047 119.785 743.384 119.076C742.731 118.367 742.404 117.508 742.404 116.5C742.404 115.492 742.731 114.633 743.384 113.924C744.047 113.215 744.864 112.86 745.834 112.86C746.348 112.86 746.824 112.977 747.262 113.21C747.71 113.434 748.056 113.723 748.298 114.078V113H749.502V122.926ZM746.016 119.034C746.707 119.034 747.276 118.791 747.724 118.306C748.172 117.821 748.396 117.219 748.396 116.5C748.396 115.781 748.172 115.179 747.724 114.694C747.276 114.209 746.707 113.966 746.016 113.966C745.316 113.966 744.742 114.209 744.294 114.694C743.846 115.179 743.622 115.781 743.622 116.5C743.622 117.219 743.846 117.821 744.294 118.306C744.742 118.791 745.316 119.034 746.016 119.034ZM754.247 120.14C753.481 120.14 752.861 119.883 752.385 119.37C751.909 118.847 751.671 118.157 751.671 117.298V113H752.875V117.116C752.875 117.704 753.015 118.171 753.295 118.516C753.584 118.861 753.971 119.034 754.457 119.034C755.017 119.034 755.479 118.805 755.843 118.348C756.216 117.881 756.403 117.256 756.403 116.472V113H757.607V120H756.403V118.922C755.945 119.734 755.227 120.14 754.247 120.14ZM762.956 120.14C761.883 120.14 761.01 119.795 760.338 119.104C759.666 118.413 759.33 117.545 759.33 116.5C759.33 115.464 759.671 114.601 760.352 113.91C761.034 113.21 761.906 112.86 762.97 112.86C763.913 112.86 764.702 113.177 765.336 113.812C765.98 114.437 766.302 115.291 766.302 116.374C766.302 116.514 766.298 116.635 766.288 116.738H760.548C760.567 117.391 760.8 117.937 761.248 118.376C761.706 118.815 762.28 119.034 762.97 119.034C763.95 119.034 764.678 118.628 765.154 117.816L766.106 118.474C765.425 119.585 764.375 120.14 762.956 120.14ZM760.632 115.758H765.07C764.977 115.198 764.73 114.755 764.328 114.428C763.936 114.092 763.47 113.924 762.928 113.924C762.378 113.924 761.883 114.092 761.444 114.428C761.015 114.755 760.744 115.198 760.632 115.758ZM770.125 120.14C769.481 120.14 768.916 120.005 768.431 119.734C767.946 119.454 767.596 119.048 767.381 118.516L768.361 117.97C768.492 118.315 768.72 118.586 769.047 118.782C769.374 118.978 769.738 119.076 770.139 119.076C770.484 119.076 770.774 118.992 771.007 118.824C771.24 118.656 771.357 118.427 771.357 118.138C771.357 117.886 771.264 117.676 771.077 117.508C770.9 117.34 770.587 117.186 770.139 117.046L769.439 116.822C768.272 116.486 767.689 115.805 767.689 114.778C767.689 114.199 767.918 113.737 768.375 113.392C768.842 113.037 769.416 112.86 770.097 112.86C771.161 112.86 771.931 113.266 772.407 114.078L771.511 114.694C771.128 114.162 770.643 113.896 770.055 113.896C769.738 113.896 769.462 113.975 769.229 114.134C769.005 114.283 768.893 114.484 768.893 114.736C768.893 114.969 768.963 115.17 769.103 115.338C769.252 115.497 769.514 115.632 769.887 115.744L770.657 115.982C771.926 116.374 772.561 117.06 772.561 118.04C772.561 118.693 772.332 119.207 771.875 119.58C771.427 119.953 770.844 120.14 770.125 120.14ZM776.961 120.07C776.317 120.07 775.799 119.888 775.407 119.524C775.015 119.16 774.819 118.628 774.819 117.928V114.106H773.335V113H774.819V111.054H776.023V113H778.039V114.106H776.023V117.774C776.023 118.213 776.117 118.521 776.303 118.698C776.49 118.875 776.784 118.964 777.185 118.964C777.54 118.964 777.825 118.917 778.039 118.824V119.902C777.703 120.014 777.344 120.07 776.961 120.07Z" fill="#3D3D3D"/>
<rect x="842" y="96" width="170" height="38" rx="8" fill="white"/>
<path d="M875 112.75C875 112.551 875.079 112.36 875.22 112.22C875.36 112.079 875.551 112 875.75 112H881.75C881.949 112 882.14 112.079 882.28 112.22C882.421 112.36 882.5 112.551 882.5 112.75C882.5 112.949 882.421 113.14 882.28 113.28C882.14 113.421 881.949 113.5 881.75 113.5H875.75C875.551 113.5 875.36 113.421 875.22 113.28C875.079 113.14 875 112.949 875 112.75ZM875.75 116.5H881.75C881.949 116.5 882.14 116.421 882.28 116.28C882.421 116.14 882.5 115.949 882.5 115.75C882.5 115.551 882.421 115.36 882.28 115.22C882.14 115.079 881.949 115 881.75 115H875.75C875.551 115 875.36 115.079 875.22 115.22C875.079 115.36 875 115.551 875 115.75C875 115.949 875.079 116.14 875.22 116.28C875.36 116.421 875.551 116.5 875.75 116.5ZM887.75 121C887.75 121.796 887.434 122.559 886.871 123.121C886.309 123.684 885.546 124 884.75 124H874.25C873.454 124 872.691 123.684 872.129 123.121C871.566 122.559 871.25 121.796 871.25 121V109C871.25 108.602 871.092 108.221 870.811 107.939C870.529 107.658 870.148 107.5 869.75 107.5C869.352 107.5 868.971 107.658 868.689 107.939C868.408 108.221 868.25 108.602 868.25 109C868.25 109.538 868.703 109.902 868.707 109.906C868.832 110.001 868.923 110.133 868.968 110.283C869.013 110.433 869.011 110.593 868.96 110.742C868.91 110.89 868.814 111.019 868.687 111.11C868.559 111.201 868.407 111.25 868.25 111.25C868.088 111.25 867.93 111.197 867.801 111.099C867.692 111.019 866.75 110.276 866.75 109C866.75 108.204 867.066 107.441 867.629 106.879C868.191 106.316 868.954 106 869.75 106H882.5C883.296 106 884.059 106.316 884.621 106.879C885.184 107.441 885.5 108.204 885.5 109V118.75H886.25C886.412 118.75 886.57 118.803 886.7 118.9C886.812 118.981 887.75 119.724 887.75 121ZM875.024 119.264C875.076 119.112 875.173 118.981 875.304 118.889C875.434 118.797 875.59 118.748 875.75 118.75H884V109C884 108.602 883.842 108.221 883.561 107.939C883.279 107.658 882.898 107.5 882.5 107.5H872.346C872.611 107.955 872.751 108.473 872.75 109V121C872.75 121.398 872.908 121.779 873.189 122.061C873.471 122.342 873.852 122.5 874.25 122.5C874.648 122.5 875.029 122.342 875.311 122.061C875.592 121.779 875.75 121.398 875.75 121C875.75 120.462 875.297 120.098 875.293 120.094C875.165 120.003 875.07 119.873 875.021 119.723C874.973 119.574 874.974 119.413 875.024 119.264ZM886.25 121C886.241 120.722 886.133 120.456 885.947 120.25H877.135C877.21 120.493 877.248 120.746 877.248 121C877.249 121.527 877.11 122.044 876.846 122.5H884.75C885.148 122.5 885.529 122.342 885.811 122.061C886.092 121.779 886.25 121.398 886.25 121Z" fill="#343330"/>
<path d="M898.084 120L902.48 110.06H903.558L907.968 120H906.61L905.322 117.102H900.688L899.428 120H898.084ZM902.998 111.824L901.206 115.926H904.804L902.998 111.824ZM910.387 122.926H909.183V113H910.387V114.078C910.629 113.723 910.97 113.434 911.409 113.21C911.857 112.977 912.337 112.86 912.851 112.86C913.821 112.86 914.633 113.215 915.287 113.924C915.949 114.633 916.281 115.492 916.281 116.5C916.281 117.508 915.949 118.367 915.287 119.076C914.633 119.785 913.821 120.14 912.851 120.14C912.337 120.14 911.857 120.028 911.409 119.804C910.97 119.571 910.629 119.277 910.387 118.922V122.926ZM910.961 118.306C911.409 118.791 911.978 119.034 912.669 119.034C913.359 119.034 913.929 118.791 914.377 118.306C914.825 117.821 915.049 117.219 915.049 116.5C915.049 115.781 914.825 115.179 914.377 114.694C913.929 114.209 913.359 113.966 912.669 113.966C911.978 113.966 911.409 114.209 910.961 114.694C910.513 115.179 910.289 115.781 910.289 116.5C910.289 117.219 910.513 117.821 910.961 118.306ZM919.219 122.926H918.015V113H919.219V114.078C919.462 113.723 919.802 113.434 920.241 113.21C920.689 112.977 921.17 112.86 921.683 112.86C922.654 112.86 923.466 113.215 924.119 113.924C924.782 114.633 925.113 115.492 925.113 116.5C925.113 117.508 924.782 118.367 924.119 119.076C923.466 119.785 922.654 120.14 921.683 120.14C921.17 120.14 920.689 120.028 920.241 119.804C919.802 119.571 919.462 119.277 919.219 118.922V122.926ZM919.793 118.306C920.241 118.791 920.81 119.034 921.501 119.034C922.192 119.034 922.761 118.791 923.209 118.306C923.657 117.821 923.881 117.219 923.881 116.5C923.881 115.781 923.657 115.179 923.209 114.694C922.761 114.209 922.192 113.966 921.501 113.966C920.81 113.966 920.241 114.209 919.793 114.694C919.345 115.179 919.121 115.781 919.121 116.5C919.121 117.219 919.345 117.821 919.793 118.306ZM926.847 120V109.5H928.051V120H926.847ZM931.551 110.886C931.393 111.045 931.192 111.124 930.949 111.124C930.707 111.124 930.501 111.045 930.333 110.886C930.165 110.718 930.081 110.513 930.081 110.27C930.081 110.037 930.165 109.836 930.333 109.668C930.501 109.5 930.707 109.416 930.949 109.416C931.192 109.416 931.393 109.5 931.551 109.668C931.71 109.836 931.789 110.037 931.789 110.27C931.789 110.513 931.71 110.718 931.551 110.886ZM930.333 120V113H931.537V120H930.333ZM936.942 120.14C935.887 120.14 935.01 119.79 934.31 119.09C933.619 118.39 933.274 117.527 933.274 116.5C933.274 115.473 933.619 114.61 934.31 113.91C935.01 113.21 935.887 112.86 936.942 112.86C937.651 112.86 938.286 113.028 938.846 113.364C939.415 113.7 939.858 114.157 940.176 114.736L939.126 115.324C938.92 114.913 938.626 114.587 938.244 114.344C937.87 114.101 937.436 113.98 936.942 113.98C936.223 113.98 935.635 114.223 935.178 114.708C934.72 115.193 934.492 115.791 934.492 116.5C934.492 117.209 934.72 117.807 935.178 118.292C935.635 118.777 936.223 119.02 936.942 119.02C937.436 119.02 937.87 118.899 938.244 118.656C938.626 118.413 938.92 118.087 939.126 117.676L940.176 118.264C939.858 118.843 939.415 119.3 938.846 119.636C938.286 119.972 937.651 120.14 936.942 120.14ZM944.62 120.14C943.649 120.14 942.832 119.785 942.17 119.076C941.516 118.367 941.19 117.508 941.19 116.5C941.19 115.492 941.516 114.633 942.17 113.924C942.832 113.215 943.649 112.86 944.62 112.86C945.133 112.86 945.609 112.977 946.048 113.21C946.496 113.434 946.841 113.723 947.084 114.078V113H948.288V120H947.084V118.922C946.841 119.277 946.496 119.571 946.048 119.804C945.609 120.028 945.133 120.14 944.62 120.14ZM944.802 119.034C945.492 119.034 946.062 118.791 946.51 118.306C946.958 117.821 947.182 117.219 947.182 116.5C947.182 115.781 946.958 115.179 946.51 114.694C946.062 114.209 945.492 113.966 944.802 113.966C944.102 113.966 943.528 114.209 943.08 114.694C942.632 115.179 942.408 115.781 942.408 116.5C942.408 117.219 942.632 117.821 943.08 118.306C943.528 118.791 944.102 119.034 944.802 119.034ZM953.27 120.07C952.626 120.07 952.108 119.888 951.716 119.524C951.324 119.16 951.128 118.628 951.128 117.928V114.106H949.644V113H951.128V111.054H952.332V113H954.348V114.106H952.332V117.774C952.332 118.213 952.425 118.521 952.612 118.698C952.799 118.875 953.093 118.964 953.494 118.964C953.849 118.964 954.133 118.917 954.348 118.824V119.902C954.012 120.014 953.653 120.07 953.27 120.07ZM957.104 110.886C956.945 111.045 956.745 111.124 956.502 111.124C956.259 111.124 956.054 111.045 955.886 110.886C955.718 110.718 955.634 110.513 955.634 110.27C955.634 110.037 955.718 109.836 955.886 109.668C956.054 109.5 956.259 109.416 956.502 109.416C956.745 109.416 956.945 109.5 957.104 109.668C957.263 109.836 957.342 110.037 957.342 110.27C957.342 110.513 957.263 110.718 957.104 110.886ZM955.886 120V113H957.09V120H955.886ZM962.48 120.14C961.426 120.14 960.548 119.79 959.848 119.09C959.158 118.381 958.812 117.517 958.812 116.5C958.812 115.483 959.158 114.624 959.848 113.924C960.548 113.215 961.426 112.86 962.48 112.86C963.526 112.86 964.394 113.215 965.084 113.924C965.784 114.624 966.134 115.483 966.134 116.5C966.134 117.517 965.784 118.381 965.084 119.09C964.394 119.79 963.526 120.14 962.48 120.14ZM960.716 118.292C961.174 118.777 961.762 119.02 962.48 119.02C963.199 119.02 963.782 118.777 964.23 118.292C964.678 117.807 964.902 117.209 964.902 116.5C964.902 115.791 964.678 115.193 964.23 114.708C963.782 114.223 963.199 113.98 962.48 113.98C961.762 113.98 961.174 114.223 960.716 114.708C960.268 115.193 960.044 115.791 960.044 116.5C960.044 117.209 960.268 117.807 960.716 118.292ZM967.863 120V113H969.067V114.078C969.543 113.266 970.285 112.86 971.293 112.86C972.086 112.86 972.725 113.117 973.211 113.63C973.696 114.143 973.939 114.829 973.939 115.688V120H972.749V115.87C972.749 115.282 972.599 114.82 972.301 114.484C972.002 114.139 971.601 113.966 971.097 113.966C970.518 113.966 970.033 114.195 969.641 114.652C969.258 115.109 969.067 115.735 969.067 116.528V120H967.863ZM978.221 120.14C977.577 120.14 977.012 120.005 976.527 119.734C976.041 119.454 975.691 119.048 975.477 118.516L976.457 117.97C976.587 118.315 976.816 118.586 977.143 118.782C977.469 118.978 977.833 119.076 978.235 119.076C978.58 119.076 978.869 118.992 979.103 118.824C979.336 118.656 979.453 118.427 979.453 118.138C979.453 117.886 979.359 117.676 979.173 117.508C978.995 117.34 978.683 117.186 978.235 117.046L977.535 116.822C976.368 116.486 975.785 115.805 975.785 114.778C975.785 114.199 976.013 113.737 976.471 113.392C976.937 113.037 977.511 112.86 978.193 112.86C979.257 112.86 980.027 113.266 980.503 114.078L979.607 114.694C979.224 114.162 978.739 113.896 978.151 113.896C977.833 113.896 977.558 113.975 977.325 114.134C977.101 114.283 976.989 114.484 976.989 114.736C976.989 114.969 977.059 115.17 977.199 115.338C977.348 115.497 977.609 115.632 977.983 115.744L978.753 115.982C980.022 116.374 980.657 117.06 980.657 118.04C980.657 118.693 980.428 119.207 979.971 119.58C979.523 119.953 978.939 120.14 978.221 120.14Z" fill="#3D3D3D"/>
<g clip-path="url(#clip0_18_348)">
<rect x="1043.5" y="94.5" width="318" height="42" rx="11.5" fill="#F5F5F5" stroke="#E4E4E4"/>
<path d="M1070.77 123.754C1075.73 123.754 1079.76 119.73 1079.76 114.766C1079.76 109.802 1075.73 105.777 1070.77 105.777C1065.8 105.777 1061.78 109.802 1061.78 114.766C1061.78 119.73 1065.8 123.754 1070.77 123.754Z" stroke="#3D3D3D" stroke-width="1.5" stroke-linecap="round" stroke-linejoin="round"/>
<path d="M1077.02 121.484L1080.54 124.999" stroke="#3D3D3D" stroke-width="1.5" stroke-linecap="round" stroke-linejoin="round"/>
<path d="M1094.41 119.644C1093.72 119.644 1093.11 119.5 1092.57 119.212C1092.04 118.916 1091.67 118.548 1091.47 118.108L1092.22 117.568C1092.73 118.376 1093.46 118.78 1094.42 118.78C1094.92 118.78 1095.32 118.652 1095.64 118.396C1095.97 118.14 1096.14 117.8 1096.14 117.376C1096.14 116.664 1095.72 116.148 1094.9 115.828L1093.64 115.348C1092.98 115.1 1092.5 114.796 1092.2 114.436C1091.9 114.076 1091.76 113.604 1091.76 113.02C1091.76 112.364 1092 111.836 1092.49 111.436C1092.98 111.036 1093.61 110.836 1094.36 110.836C1094.88 110.836 1095.35 110.944 1095.76 111.16C1096.19 111.376 1096.52 111.656 1096.77 112L1096.06 112.576C1095.58 111.992 1095 111.7 1094.32 111.7C1093.85 111.7 1093.46 111.824 1093.14 112.072C1092.82 112.312 1092.67 112.624 1092.67 113.008C1092.67 113.384 1092.76 113.68 1092.96 113.896C1093.16 114.104 1093.48 114.296 1093.94 114.472L1095.07 114.904C1095.73 115.16 1096.23 115.48 1096.56 115.864C1096.88 116.248 1097.05 116.744 1097.05 117.352C1097.05 118.056 1096.8 118.616 1096.32 119.032C1095.83 119.44 1095.19 119.644 1094.41 119.644ZM1101.21 119.62C1100.29 119.62 1099.55 119.324 1098.98 118.732C1098.41 118.132 1098.13 117.388 1098.13 116.5C1098.13 115.62 1098.42 114.88 1099 114.28C1099.59 113.68 1100.33 113.38 1101.23 113.38C1102.04 113.38 1102.71 113.652 1103.25 114.196C1103.79 114.74 1104.05 115.48 1104.05 116.416V116.644H1098.99C1098.99 117.268 1099.2 117.792 1099.61 118.216C1100.03 118.632 1100.56 118.84 1101.21 118.84C1101.69 118.84 1102.08 118.748 1102.39 118.564C1102.7 118.372 1102.97 118.088 1103.19 117.712L1103.87 118.156C1103.31 119.132 1102.42 119.62 1101.21 119.62ZM1099.06 115.9H1103.18C1103.1 115.364 1102.88 114.94 1102.52 114.628C1102.16 114.316 1101.72 114.16 1101.2 114.16C1100.68 114.16 1100.21 114.32 1099.81 114.64C1099.41 114.952 1099.16 115.372 1099.06 115.9ZM1108.09 119.62C1107.25 119.62 1106.54 119.316 1105.96 118.708C1105.39 118.1 1105.1 117.364 1105.1 116.5C1105.1 115.636 1105.39 114.9 1105.96 114.292C1106.54 113.684 1107.25 113.38 1108.09 113.38C1108.54 113.38 1108.97 113.484 1109.37 113.692C1109.78 113.9 1110.09 114.172 1110.31 114.508V113.5H1111.15V119.5H1110.31V118.492C1110.09 118.828 1109.78 119.1 1109.37 119.308C1108.97 119.516 1108.54 119.62 1108.09 119.62ZM1106.57 118.168C1106.99 118.616 1107.52 118.84 1108.17 118.84C1108.82 118.84 1109.35 118.616 1109.75 118.168C1110.17 117.712 1110.38 117.156 1110.38 116.5C1110.38 115.844 1110.17 115.292 1109.75 114.844C1109.35 114.388 1108.82 114.16 1108.17 114.16C1107.52 114.16 1106.99 114.388 1106.57 114.844C1106.17 115.292 1105.96 115.844 1105.96 116.5C1105.96 117.156 1106.17 117.712 1106.57 118.168ZM1113.21 119.5V113.5H1114.05V114.736C1114.18 114.336 1114.4 114.02 1114.73 113.788C1115.06 113.556 1115.41 113.44 1115.79 113.44C1115.96 113.44 1116.1 113.456 1116.22 113.488V114.364C1116.08 114.308 1115.91 114.28 1115.72 114.28C1115.29 114.28 1114.91 114.472 1114.56 114.856C1114.22 115.24 1114.05 115.784 1114.05 116.488V119.5H1113.21ZM1119.91 119.62C1119.01 119.62 1118.26 119.32 1117.67 118.72C1117.08 118.112 1116.78 117.372 1116.78 116.5C1116.78 115.628 1117.08 114.892 1117.67 114.292C1118.26 113.684 1119.01 113.38 1119.91 113.38C1120.52 113.38 1121.06 113.52 1121.53 113.8C1122.01 114.08 1122.39 114.464 1122.66 114.952L1121.93 115.372C1121.74 114.996 1121.47 114.7 1121.11 114.484C1120.77 114.268 1120.37 114.16 1119.91 114.16C1119.24 114.16 1118.69 114.388 1118.27 114.844C1117.85 115.292 1117.65 115.844 1117.65 116.5C1117.65 117.156 1117.85 117.712 1118.27 118.168C1118.69 118.616 1119.24 118.84 1119.91 118.84C1120.37 118.84 1120.77 118.732 1121.11 118.516C1121.47 118.3 1121.74 118.004 1121.93 117.628L1122.66 118.048C1122.39 118.536 1122.01 118.92 1121.53 119.2C1121.06 119.48 1120.52 119.62 1119.91 119.62ZM1124.93 119.5H1124.09V110.5H1124.93V114.508C1125.34 113.756 1126 113.38 1126.9 113.38C1127.57 113.38 1128.11 113.592 1128.52 114.016C1128.95 114.44 1129.16 115.016 1129.16 115.744V119.5H1128.32V115.864C1128.32 115.344 1128.18 114.932 1127.9 114.628C1127.63 114.316 1127.26 114.16 1126.81 114.16C1126.26 114.16 1125.81 114.372 1125.46 114.796C1125.11 115.212 1124.93 115.784 1124.93 116.512V119.5ZM1134.07 119.5V110.5H1134.91V119.5H1134.07ZM1137.41 111.7C1137.22 111.7 1137.07 111.64 1136.94 111.52C1136.82 111.392 1136.76 111.24 1136.76 111.064C1136.76 110.888 1136.82 110.74 1136.94 110.62C1137.07 110.492 1137.22 110.428 1137.41 110.428C1137.58 110.428 1137.73 110.492 1137.85 110.62C1137.97 110.74 1138.03 110.888 1138.03 111.064C1138.03 111.24 1137.97 111.392 1137.85 111.52C1137.73 111.64 1137.58 111.7 1137.41 111.7ZM1136.97 119.5V113.5H1137.81V119.5H1136.97ZM1141.63 119.62C1141.06 119.62 1140.57 119.496 1140.16 119.248C1139.75 118.992 1139.46 118.624 1139.3 118.144L1140.06 117.832C1140.16 118.152 1140.35 118.404 1140.65 118.588C1140.95 118.772 1141.28 118.864 1141.64 118.864C1141.98 118.864 1142.26 118.784 1142.47 118.624C1142.7 118.456 1142.81 118.228 1142.81 117.94C1142.81 117.7 1142.72 117.5 1142.54 117.34C1142.38 117.172 1142.09 117.02 1141.68 116.884L1141.03 116.68C1140.07 116.384 1139.59 115.816 1139.59 114.976C1139.59 114.488 1139.78 114.1 1140.16 113.812C1140.54 113.524 1141.02 113.38 1141.6 113.38C1142.5 113.38 1143.15 113.732 1143.54 114.436L1142.87 114.856C1142.55 114.368 1142.11 114.124 1141.55 114.124C1141.25 114.124 1140.99 114.204 1140.77 114.364C1140.54 114.516 1140.43 114.708 1140.43 114.94C1140.43 115.388 1140.74 115.712 1141.37 115.912L1142.05 116.128C1143.12 116.464 1143.65 117.044 1143.65 117.868C1143.65 118.42 1143.46 118.852 1143.08 119.164C1142.72 119.468 1142.23 119.62 1141.63 119.62ZM1147.35 119.56C1146.84 119.56 1146.43 119.416 1146.11 119.128C1145.8 118.832 1145.64 118.4 1145.64 117.832V114.292H1144.36V113.5H1145.64V111.832H1146.48V113.5H1148.24V114.292H1146.48V117.76C1146.48 118.128 1146.56 118.392 1146.72 118.552C1146.89 118.704 1147.14 118.78 1147.48 118.78C1147.78 118.78 1148.04 118.736 1148.24 118.648V119.404C1147.97 119.508 1147.68 119.56 1147.35 119.56ZM1150.04 111.7C1149.85 111.7 1149.7 111.64 1149.57 111.52C1149.45 111.392 1149.39 111.24 1149.39 111.064C1149.39 110.888 1149.45 110.74 1149.57 110.62C1149.7 110.492 1149.85 110.428 1150.04 110.428C1150.21 110.428 1150.36 110.492 1150.48 110.62C1150.6 110.74 1150.66 110.888 1150.66 111.064C1150.66 111.24 1150.6 111.392 1150.48 111.52C1150.36 111.64 1150.21 111.7 1150.04 111.7ZM1149.61 119.5V113.5H1150.45V119.5H1149.61ZM1152.51 119.5V113.5H1153.35V114.508C1153.76 113.756 1154.42 113.38 1155.32 113.38C1155.98 113.38 1156.52 113.592 1156.94 114.016C1157.36 114.44 1157.58 115.016 1157.58 115.744V119.5H1156.74V115.864C1156.74 115.344 1156.6 114.932 1156.32 114.628C1156.04 114.316 1155.68 114.16 1155.22 114.16C1154.68 114.16 1154.23 114.372 1153.88 114.796C1153.53 115.212 1153.35 115.784 1153.35 116.512V119.5H1152.51ZM1160.52 118.072C1160.92 118.504 1161.45 118.72 1162.1 118.72C1162.75 118.72 1163.27 118.504 1163.67 118.072C1164.08 117.64 1164.28 117.096 1164.28 116.44C1164.28 115.784 1164.08 115.24 1163.67 114.808C1163.27 114.376 1162.75 114.16 1162.1 114.16C1161.45 114.16 1160.92 114.376 1160.52 114.808C1160.12 115.24 1159.92 115.784 1159.92 116.44C1159.92 117.096 1160.12 117.64 1160.52 118.072ZM1162.09 122.128C1161.44 122.128 1160.87 122.004 1160.37 121.756C1159.88 121.508 1159.5 121.196 1159.26 120.82L1159.92 120.256C1160.44 120.984 1161.16 121.348 1162.09 121.348C1162.66 121.348 1163.16 121.164 1163.58 120.796C1164 120.428 1164.21 119.876 1164.21 119.14V118.372C1163.99 118.708 1163.68 118.98 1163.29 119.188C1162.9 119.396 1162.47 119.5 1162.02 119.5C1161.17 119.5 1160.46 119.208 1159.89 118.624C1159.33 118.032 1159.05 117.304 1159.05 116.44C1159.05 115.576 1159.33 114.852 1159.89 114.268C1160.46 113.676 1161.17 113.38 1162.02 113.38C1162.47 113.38 1162.9 113.484 1163.29 113.692C1163.68 113.9 1163.99 114.172 1164.21 114.508V113.5H1165.05V119.188C1165.05 120.132 1164.78 120.856 1164.22 121.36C1163.67 121.872 1162.96 122.128 1162.09 122.128ZM1168.87 119.62C1168.3 119.62 1167.81 119.496 1167.39 119.248C1166.98 118.992 1166.7 118.624 1166.54 118.144L1167.29 117.832C1167.39 118.152 1167.59 118.404 1167.88 118.588C1168.19 118.772 1168.52 118.864 1168.88 118.864C1169.21 118.864 1169.49 118.784 1169.71 118.624C1169.93 118.456 1170.04 118.228 1170.04 117.94C1170.04 117.7 1169.95 117.5 1169.78 117.34C1169.61 117.172 1169.32 117.02 1168.91 116.884L1168.27 116.68C1167.31 116.384 1166.83 115.816 1166.83 114.976C1166.83 114.488 1167.01 114.1 1167.39 113.812C1167.77 113.524 1168.25 113.38 1168.83 113.38C1169.73 113.38 1170.38 113.732 1170.77 114.436L1170.1 114.856C1169.78 114.368 1169.34 114.124 1168.78 114.124C1168.49 114.124 1168.23 114.204 1168 114.364C1167.78 114.516 1167.67 114.708 1167.67 114.94C1167.67 115.388 1167.98 115.712 1168.6 115.912L1169.29 116.128C1170.35 116.464 1170.88 117.044 1170.88 117.868C1170.88 118.42 1170.69 118.852 1170.32 119.164C1169.95 119.468 1169.47 119.62 1168.87 119.62ZM1173.59 119.26L1172.39 121.18H1171.79L1172.57 119.5C1172.29 119.34 1172.15 119.104 1172.15 118.792C1172.15 118.576 1172.22 118.388 1172.37 118.228C1172.53 118.068 1172.72 117.988 1172.94 117.988C1173.15 117.988 1173.34 118.068 1173.49 118.228C1173.65 118.388 1173.73 118.576 1173.73 118.792C1173.73 118.952 1173.68 119.108 1173.59 119.26ZM1180.5 119.62C1179.85 119.62 1179.32 119.404 1178.92 118.972C1178.51 118.54 1178.3 117.968 1178.3 117.256V113.5H1179.14V117.136C1179.14 117.656 1179.28 118.072 1179.55 118.384C1179.82 118.688 1180.18 118.84 1180.61 118.84C1181.13 118.84 1181.56 118.628 1181.89 118.204C1182.24 117.772 1182.41 117.2 1182.41 116.488V113.5H1183.25V119.5H1182.41V118.492C1182 119.244 1181.36 119.62 1180.5 119.62ZM1187.07 119.62C1186.5 119.62 1186.01 119.496 1185.59 119.248C1185.18 118.992 1184.9 118.624 1184.74 118.144L1185.49 117.832C1185.59 118.152 1185.79 118.404 1186.08 118.588C1186.39 118.772 1186.72 118.864 1187.08 118.864C1187.41 118.864 1187.69 118.784 1187.91 118.624C1188.13 118.456 1188.24 118.228 1188.24 117.94C1188.24 117.7 1188.15 117.5 1187.98 117.34C1187.81 117.172 1187.52 117.02 1187.11 116.884L1186.47 116.68C1185.51 116.384 1185.03 115.816 1185.03 114.976C1185.03 114.488 1185.21 114.1 1185.59 113.812C1185.97 113.524 1186.45 113.38 1187.03 113.38C1187.93 113.38 1188.58 113.732 1188.97 114.436L1188.3 114.856C1187.98 114.368 1187.54 114.124 1186.98 114.124C1186.69 114.124 1186.43 114.204 1186.2 114.364C1185.98 114.516 1185.87 114.708 1185.87 114.94C1185.87 115.388 1186.18 115.712 1186.8 115.912L1187.49 116.128C1188.55 116.464 1189.08 117.044 1189.08 117.868C1189.08 118.42 1188.89 118.852 1188.52 119.164C1188.15 119.468 1187.67 119.62 1187.07 119.62ZM1193.27 119.62C1192.35 119.62 1191.61 119.324 1191.04 118.732C1190.47 118.132 1190.19 117.388 1190.19 116.5C1190.19 115.62 1190.48 114.88 1191.06 114.28C1191.65 113.68 1192.39 113.38 1193.3 113.38C1194.1 113.38 1194.78 113.652 1195.31 114.196C1195.85 114.74 1196.12 115.48 1196.12 116.416V116.644H1191.05C1191.05 117.268 1191.26 117.792 1191.68 118.216C1192.09 118.632 1192.62 118.84 1193.27 118.84C1193.75 118.84 1194.14 118.748 1194.45 118.564C1194.76 118.372 1195.03 118.088 1195.25 117.712L1195.94 118.156C1195.37 119.132 1194.48 119.62 1193.27 119.62ZM1191.12 115.9H1195.24C1195.16 115.364 1194.94 114.94 1194.58 114.628C1194.22 114.316 1193.78 114.16 1193.26 114.16C1192.74 114.16 1192.28 114.32 1191.87 114.64C1191.47 114.952 1191.22 115.372 1191.12 115.9ZM1197.66 119.5V113.5H1198.5V114.736C1198.63 114.336 1198.86 114.02 1199.19 113.788C1199.52 113.556 1199.87 113.44 1200.24 113.44C1200.41 113.44 1200.56 113.456 1200.68 113.488V114.364C1200.53 114.308 1200.36 114.28 1200.17 114.28C1199.75 114.28 1199.36 114.472 1199.02 114.856C1198.68 115.24 1198.5 115.784 1198.5 116.488V119.5H1197.66ZM1203.59 119.62C1203.02 119.62 1202.53 119.496 1202.11 119.248C1201.7 118.992 1201.42 118.624 1201.26 118.144L1202.02 117.832C1202.11 118.152 1202.31 118.404 1202.6 118.588C1202.91 118.772 1203.24 118.864 1203.6 118.864C1203.94 118.864 1204.21 118.784 1204.43 118.624C1204.65 118.456 1204.76 118.228 1204.76 117.94C1204.76 117.7 1204.68 117.5 1204.5 117.34C1204.33 117.172 1204.04 117.02 1203.64 116.884L1202.99 116.68C1202.03 116.384 1201.55 115.816 1201.55 114.976C1201.55 114.488 1201.74 114.1 1202.11 113.812C1202.5 113.524 1202.98 113.38 1203.55 113.38C1204.46 113.38 1205.1 113.732 1205.5 114.436L1204.82 114.856C1204.5 114.368 1204.06 114.124 1203.5 114.124C1203.21 114.124 1202.95 114.204 1202.72 114.364C1202.5 114.516 1202.39 114.708 1202.39 114.94C1202.39 115.388 1202.7 115.712 1203.32 115.912L1204.01 116.128C1205.07 116.464 1205.6 117.044 1205.6 117.868C1205.6 118.42 1205.42 118.852 1205.04 119.164C1204.67 119.468 1204.19 119.62 1203.59 119.62ZM1210.99 119.5H1210.15V110.5H1210.99V114.508C1211.39 113.756 1212.05 113.38 1212.95 113.38C1213.62 113.38 1214.16 113.592 1214.57 114.016C1215 114.44 1215.21 115.016 1215.21 115.744V119.5H1214.37V115.864C1214.37 115.344 1214.23 114.932 1213.95 114.628C1213.68 114.316 1213.31 114.16 1212.86 114.16C1212.31 114.16 1211.87 114.372 1211.51 114.796C1211.16 115.212 1210.99 115.784 1210.99 116.512V119.5ZM1219.77 119.62C1218.85 119.62 1218.1 119.324 1217.54 118.732C1216.97 118.132 1216.68 117.388 1216.68 116.5C1216.68 115.62 1216.98 114.88 1217.56 114.28C1218.14 113.68 1218.89 113.38 1219.79 113.38C1220.6 113.38 1221.27 113.652 1221.81 114.196C1222.34 114.74 1222.61 115.48 1222.61 116.416V116.644H1217.55C1217.55 117.268 1217.76 117.792 1218.17 118.216C1218.59 118.632 1219.12 118.84 1219.77 118.84C1220.25 118.84 1220.64 118.748 1220.94 118.564C1221.26 118.372 1221.52 118.088 1221.75 117.712L1222.43 118.156C1221.86 119.132 1220.98 119.62 1219.77 119.62ZM1217.62 115.9H1221.74C1221.66 115.364 1221.44 114.94 1221.08 114.628C1220.72 114.316 1220.28 114.16 1219.76 114.16C1219.24 114.16 1218.77 114.32 1218.36 114.64C1217.96 114.952 1217.72 115.372 1217.62 115.9ZM1224.16 119.5V113.5H1225V114.736C1225.13 114.336 1225.36 114.02 1225.68 113.788C1226.01 113.556 1226.36 113.44 1226.74 113.44C1226.91 113.44 1227.05 113.456 1227.17 113.488V114.364C1227.03 114.308 1226.86 114.28 1226.67 114.28C1226.24 114.28 1225.86 114.472 1225.52 114.856C1225.17 115.24 1225 115.784 1225 116.488V119.5H1224.16ZM1230.83 119.62C1229.91 119.62 1229.17 119.324 1228.6 118.732C1228.03 118.132 1227.75 117.388 1227.75 116.5C1227.75 115.62 1228.04 114.88 1228.62 114.28C1229.21 113.68 1229.95 113.38 1230.86 113.38C1231.66 113.38 1232.34 113.652 1232.87 114.196C1233.41 114.74 1233.68 115.48 1233.68 116.416V116.644H1228.61C1228.61 117.268 1228.82 117.792 1229.24 118.216C1229.65 118.632 1230.18 118.84 1230.83 118.84C1231.31 118.84 1231.7 118.748 1232.01 118.564C1232.32 118.372 1232.59 118.088 1232.81 117.712L1233.5 118.156C1232.93 119.132 1232.04 119.62 1230.83 119.62ZM1228.68 115.9H1232.8C1232.72 115.364 1232.5 114.94 1232.14 114.628C1231.78 114.316 1231.34 114.16 1230.82 114.16C1230.3 114.16 1229.84 114.32 1229.43 114.64C1229.03 114.952 1228.78 115.372 1228.68 115.9ZM1236.21 119.356C1236.06 119.516 1235.87 119.596 1235.66 119.596C1235.44 119.596 1235.25 119.516 1235.09 119.356C1234.94 119.196 1234.86 119.008 1234.86 118.792C1234.86 118.576 1234.94 118.388 1235.09 118.228C1235.25 118.068 1235.44 117.988 1235.66 117.988C1235.87 117.988 1236.06 118.068 1236.21 118.228C1236.37 118.388 1236.45 118.576 1236.45 118.792C1236.45 119.008 1236.37 119.196 1236.21 119.356ZM1239.14 119.356C1238.99 119.516 1238.8 119.596 1238.59 119.596C1238.37 119.596 1238.18 119.516 1238.02 119.356C1237.87 119.196 1237.79 119.008 1237.79 118.792C1237.79 118.576 1237.87 118.388 1238.02 118.228C1238.18 118.068 1238.37 117.988 1238.59 117.988C1238.8 117.988 1238.99 118.068 1239.14 118.228C1239.3 118.388 1239.38 118.576 1239.38 118.792C1239.38 119.008 1239.3 119.196 1239.14 119.356ZM1242.07 119.356C1241.91 119.516 1241.73 119.596 1241.51 119.596C1241.3 119.596 1241.11 119.516 1240.95 119.356C1240.8 119.196 1240.72 119.008 1240.72 118.792C1240.72 118.576 1240.8 118.388 1240.95 118.228C1241.11 118.068 1241.3 117.988 1241.51 117.988C1241.73 117.988 1241.91 118.068 1242.07 118.228C1242.23 118.388 1242.31 118.576 1242.31 118.792C1242.31 119.008 1242.23 119.196 1242.07 119.356Z" fill="#919191"/>
</g>
<path fill-rule="evenodd" clip-rule="evenodd" d="M1121.94 36.7278C1121.94 38.4024 1122.39 39.3893 1123.36 40.5268C1124.1 41.3648 1124.33 42.4404 1124.33 43.6073C1124.33 44.7729 1123.95 45.8795 1123.18 46.7779C1122.18 47.8549 1120.76 48.5424 1119.32 48.662C1117.22 48.8405 1115.13 48.9909 1113 48.9909C1110.88 48.9909 1108.78 48.9011 1106.69 48.662C1105.24 48.5424 1103.82 47.8549 1102.82 46.7779C1102.05 45.8795 1101.67 44.7729 1101.67 43.6073C1101.67 42.4404 1101.9 41.3648 1102.64 40.5268C1103.65 39.3893 1104.06 38.4024 1104.06 36.7278V36.1597C1104.06 33.9171 1104.62 32.4507 1105.77 31.0152C1107.48 28.9216 1110.23 27.666 1112.94 27.666H1113.06C1115.83 27.666 1118.67 28.982 1120.35 31.1656C1121.44 32.5716 1121.94 33.9762 1121.94 36.1597V36.7278ZM1109.1 51.7471C1109.1 51.0758 1109.71 50.7681 1110.28 50.6365C1110.95 50.4956 1115.01 50.4956 1115.68 50.6365C1116.25 50.7681 1116.87 51.0758 1116.87 51.7471C1116.83 52.3863 1116.46 52.9531 1115.94 53.313C1115.27 53.8367 1114.48 54.1683 1113.65 54.2879C1113.2 54.347 1112.75 54.3483 1112.31 54.2879C1111.49 54.1683 1110.7 53.8367 1110.03 53.3116C1109.51 52.9531 1109.13 52.3863 1109.1 51.7471Z" fill="white"/>
<path d="M1174.33 27.666H1163.67C1159.99 27.666 1157 30.6527 1157 34.3327V47.666C1157 51.346 1159.99 54.3327 1163.67 54.3327H1174.33C1178.01 54.3327 1181 51.346 1181 47.666V34.3327C1181 30.6527 1178.01 27.666 1174.33 27.666ZM1164.81 49.8393C1164.56 50.0927 1164.23 50.226 1163.88 50.226C1163.52 50.226 1163.19 50.0927 1162.93 49.8393C1162.68 49.586 1162.53 49.2527 1162.53 48.8927C1162.53 48.546 1162.68 48.1993 1162.93 47.946C1163.05 47.826 1163.2 47.7327 1163.36 47.666C1163.69 47.5327 1164.05 47.5327 1164.39 47.666C1164.47 47.6927 1164.55 47.7327 1164.61 47.786C1164.69 47.826 1164.76 47.8927 1164.81 47.946C1165.07 48.1993 1165.21 48.546 1165.21 48.8927C1165.21 49.2527 1165.07 49.586 1164.81 49.8393ZM1162.53 43.5593C1162.53 43.386 1162.57 43.2127 1162.64 43.0527C1162.71 42.8793 1162.8 42.746 1162.93 42.6127C1163.24 42.306 1163.71 42.1593 1164.13 42.2527C1164.21 42.266 1164.31 42.2927 1164.39 42.3327C1164.47 42.3593 1164.55 42.3993 1164.61 42.4527C1164.69 42.4927 1164.76 42.5593 1164.81 42.6127C1164.93 42.746 1165.04 42.8793 1165.11 43.0527C1165.17 43.2127 1165.2 43.386 1165.2 43.5593C1165.2 43.9193 1165.07 44.2527 1164.81 44.506C1164.56 44.7593 1164.23 44.8927 1163.88 44.8927C1163.69 44.8927 1163.52 44.8527 1163.36 44.786C1163.2 44.7193 1163.05 44.626 1162.93 44.506C1162.68 44.2527 1162.53 43.9193 1162.53 43.5593ZM1170.15 49.8393C1170.03 49.9593 1169.88 50.0527 1169.72 50.1194C1169.56 50.186 1169.39 50.226 1169.2 50.226C1168.85 50.226 1168.52 50.0927 1168.27 49.8393C1168.01 49.586 1167.87 49.2527 1167.87 48.8927C1167.87 48.7993 1167.88 48.7193 1167.89 48.626C1167.92 48.546 1167.95 48.466 1167.97 48.386C1168.01 48.306 1168.05 48.226 1168.09 48.146C1168.15 48.0793 1168.2 48.0127 1168.27 47.946C1168.39 47.826 1168.53 47.7327 1168.69 47.666C1169.19 47.466 1169.77 47.5727 1170.15 47.946C1170.4 48.1993 1170.53 48.546 1170.53 48.8927C1170.53 49.2527 1170.4 49.586 1170.15 49.8393ZM1170.15 44.506C1169.89 44.7593 1169.56 44.8927 1169.2 44.8927C1168.85 44.8927 1168.52 44.7593 1168.27 44.506C1168.01 44.2527 1167.87 43.9193 1167.87 43.5593C1167.87 43.2127 1168.01 42.866 1168.27 42.6127C1168.76 42.1193 1169.65 42.1193 1170.15 42.6127C1170.27 42.746 1170.37 42.8793 1170.44 43.0527C1170.51 43.2127 1170.53 43.386 1170.53 43.5593C1170.53 43.9193 1170.4 44.2527 1170.15 44.506ZM1165 38.946C1163.63 38.946 1162.49 37.826 1162.49 36.4393V35.106C1162.49 33.7327 1163.61 32.5993 1165 32.5993H1173C1174.37 32.5993 1175.51 33.7193 1175.51 35.106V36.4393C1175.51 37.8127 1174.39 38.946 1173 38.946H1165ZM1175.48 49.8393C1175.23 50.0927 1174.89 50.226 1174.53 50.226C1174.36 50.226 1174.19 50.186 1174.03 50.1194C1173.87 50.0527 1173.72 49.9593 1173.6 49.8393C1173.35 49.586 1173.21 49.2527 1173.21 48.8927C1173.21 48.546 1173.35 48.1993 1173.6 47.946C1173.96 47.5727 1174.56 47.466 1175.05 47.666C1175.21 47.7327 1175.36 47.826 1175.48 47.946C1175.73 48.1993 1175.87 48.546 1175.87 48.8927C1175.87 49.2527 1175.73 49.586 1175.48 49.8393ZM1175.77 44.066C1175.71 44.226 1175.61 44.3727 1175.48 44.506C1175.23 44.7593 1174.89 44.8927 1174.53 44.8927C1174.19 44.8927 1173.85 44.7593 1173.6 44.506C1173.35 44.2527 1173.2 43.9193 1173.2 43.5593C1173.2 43.2127 1173.35 42.866 1173.6 42.6127C1174.09 42.1193 1174.99 42.1193 1175.48 42.6127C1175.73 42.866 1175.88 43.2127 1175.88 43.5593C1175.88 43.7327 1175.84 43.906 1175.77 44.066Z" fill="white"/>
<path d="M1231.33 29.746V27.666C1231.33 27.1193 1230.88 26.666 1230.33 26.666C1229.79 26.666 1229.33 27.1193 1229.33 27.666V29.666H1220.67V27.666C1220.67 27.1193 1220.21 26.666 1219.67 26.666C1219.12 26.666 1218.67 27.1193 1218.67 27.666V29.746C1215.07 30.0793 1213.32 32.226 1213.05 35.4127C1213.03 35.7993 1213.35 36.1193 1213.72 36.1193H1236.28C1236.67 36.1193 1236.99 35.786 1236.95 35.4127C1236.68 32.226 1234.93 30.0793 1231.33 29.746Z" fill="white"/>
<path d="M1235.67 38.1191H1214.33C1213.6 38.1191 1213 38.7191 1213 39.4525V47.6658C1213 51.6658 1215 54.3325 1219.67 54.3325H1230.33C1235 54.3325 1237 51.6658 1237 47.6658V39.4525C1237 38.7191 1236.4 38.1191 1235.67 38.1191ZM1221.28 49.2791C1221.21 49.3325 1221.15 49.3991 1221.08 49.4391C1221 49.4925 1220.92 49.5325 1220.84 49.5591C1220.76 49.5991 1220.68 49.6258 1220.6 49.6391C1220.51 49.6525 1220.43 49.6658 1220.33 49.6658C1220.16 49.6658 1219.99 49.6258 1219.83 49.5591C1219.65 49.4925 1219.52 49.3991 1219.39 49.2791C1219.15 49.0258 1219 48.6791 1219 48.3325C1219 47.9858 1219.15 47.6391 1219.39 47.3858C1219.52 47.2658 1219.65 47.1725 1219.83 47.1058C1220.07 46.9991 1220.33 46.9725 1220.6 47.0258C1220.68 47.0391 1220.76 47.0658 1220.84 47.1058C1220.92 47.1325 1221 47.1725 1221.08 47.2258C1221.15 47.2791 1221.21 47.3325 1221.28 47.3858C1221.52 47.6391 1221.67 47.9858 1221.67 48.3325C1221.67 48.6791 1221.52 49.0258 1221.28 49.2791ZM1221.28 44.6125C1221.03 44.8525 1220.68 44.9991 1220.33 44.9991C1219.99 44.9991 1219.64 44.8525 1219.39 44.6125C1219.15 44.3591 1219 44.0125 1219 43.6658C1219 43.3191 1219.15 42.9725 1219.39 42.7191C1219.76 42.3458 1220.35 42.2258 1220.84 42.4391C1221.01 42.5058 1221.16 42.5991 1221.28 42.7191C1221.52 42.9725 1221.67 43.3191 1221.67 43.6658C1221.67 44.0125 1221.52 44.3591 1221.28 44.6125ZM1225.95 49.2791C1225.69 49.5191 1225.35 49.6658 1225 49.6658C1224.65 49.6658 1224.31 49.5191 1224.05 49.2791C1223.81 49.0258 1223.67 48.6791 1223.67 48.3325C1223.67 47.9858 1223.81 47.6391 1224.05 47.3858C1224.55 46.8925 1225.45 46.8925 1225.95 47.3858C1226.19 47.6391 1226.33 47.9858 1226.33 48.3325C1226.33 48.6791 1226.19 49.0258 1225.95 49.2791ZM1225.95 44.6125C1225.88 44.6658 1225.81 44.7191 1225.75 44.7725C1225.67 44.8258 1225.59 44.8658 1225.51 44.8925C1225.43 44.9325 1225.35 44.9591 1225.27 44.9725C1225.17 44.9858 1225.09 44.9991 1225 44.9991C1224.65 44.9991 1224.31 44.8525 1224.05 44.6125C1223.81 44.3591 1223.67 44.0125 1223.67 43.6658C1223.67 43.3191 1223.81 42.9725 1224.05 42.7191C1224.17 42.5991 1224.32 42.5058 1224.49 42.4391C1224.99 42.2258 1225.57 42.3458 1225.95 42.7191C1226.19 42.9725 1226.33 43.3191 1226.33 43.6658C1226.33 44.0125 1226.19 44.3591 1225.95 44.6125ZM1230.61 49.2791C1230.36 49.5191 1230.01 49.6658 1229.67 49.6658C1229.32 49.6658 1228.97 49.5191 1228.72 49.2791C1228.48 49.0258 1228.33 48.6791 1228.33 48.3325C1228.33 47.9858 1228.48 47.6391 1228.72 47.3858C1229.21 46.8925 1230.12 46.8925 1230.61 47.3858C1230.85 47.6391 1231 47.9858 1231 48.3325C1231 48.6791 1230.85 49.0258 1230.61 49.2791ZM1230.61 44.6125C1230.55 44.6658 1230.48 44.7191 1230.41 44.7725C1230.33 44.8258 1230.25 44.8658 1230.17 44.8925C1230.09 44.9325 1230.01 44.9591 1229.93 44.9725C1229.84 44.9858 1229.75 44.9991 1229.67 44.9991C1229.32 44.9991 1228.97 44.8525 1228.72 44.6125C1228.48 44.3591 1228.33 44.0125 1228.33 43.6658C1228.33 43.3191 1228.48 42.9725 1228.72 42.7191C1228.85 42.5991 1228.99 42.5058 1229.16 42.4391C1229.4 42.3325 1229.67 42.3058 1229.93 42.3591C1230.01 42.3725 1230.09 42.3991 1230.17 42.4391C1230.25 42.4658 1230.33 42.5058 1230.41 42.5591C1230.48 42.6125 1230.55 42.6658 1230.61 42.7191C1230.85 42.9725 1231 43.3191 1231 43.6658C1231 44.0125 1230.85 44.3591 1230.61 44.6125Z" fill="white"/>
<path d="M1291.67 33.9993C1293.69 33.9993 1295.33 32.3577 1295.33 30.3327C1295.33 28.3076 1293.69 26.666 1291.67 26.666C1289.64 26.666 1288 28.3076 1288 30.3327C1288 32.3577 1289.64 33.9993 1291.67 33.9993Z" fill="white"/>
<path d="M1290.39 35.866C1288.29 35.4127 1286.59 33.706 1286.13 31.6127C1285.96 30.7993 1285.95 30.0127 1286.09 29.266C1286.27 28.4393 1285.65 27.666 1284.8 27.666H1274.33C1270.65 27.666 1267.67 30.6527 1267.67 34.3327V43.5993C1267.67 47.2793 1270.65 50.266 1274.33 50.266H1276.33C1276.71 50.266 1277.19 50.506 1277.4 50.7994L1279.4 53.4527C1280.28 54.626 1281.72 54.626 1282.6 53.4527L1284.6 50.7994C1284.85 50.466 1285.24 50.266 1285.67 50.266H1287.68C1291.36 50.266 1294.33 47.2927 1294.33 43.6127V37.1993C1294.33 36.3593 1293.56 35.746 1292.73 35.906C1291.99 36.0393 1291.2 36.0393 1290.39 35.866ZM1275.67 40.9993C1274.92 40.9993 1274.33 40.3993 1274.33 39.666C1274.33 38.9327 1274.92 38.3327 1275.67 38.3327C1276.4 38.3327 1277 38.9327 1277 39.666C1277 40.3993 1276.41 40.9993 1275.67 40.9993ZM1281 40.9993C1280.25 40.9993 1279.67 40.3993 1279.67 39.666C1279.67 38.9327 1280.25 38.3327 1281 38.3327C1281.73 38.3327 1282.33 38.9327 1282.33 39.666C1282.33 40.3993 1281.75 40.9993 1281 40.9993ZM1286.33 40.9993C1285.59 40.9993 1285 40.3993 1285 39.666C1285 38.9327 1285.59 38.3327 1286.33 38.3327C1287.07 38.3327 1287.67 38.9327 1287.67 39.666C1287.67 40.3993 1287.08 40.9993 1286.33 40.9993Z" fill="white"/>
<rect x="1322" y="21" width="40" height="40" rx="20" fill="white"/>
<path d="M1335.74 49V32.67H1340.75C1343.17 32.67 1345.2 33.452 1346.84 35.016C1348.49 36.58 1349.31 38.5197 1349.31 40.835C1349.31 43.1503 1348.49 45.09 1346.84 46.654C1345.2 48.218 1343.17 49 1340.75 49H1335.74ZM1338.43 46.493H1340.75C1342.47 46.493 1343.86 45.9563 1344.94 44.883C1346.02 43.8097 1346.57 42.4603 1346.57 40.835C1346.57 39.2097 1346.02 37.8603 1344.94 36.787C1343.86 35.7137 1342.47 35.177 1340.75 35.177H1338.43V46.493Z" fill="black"/>
<path d="M131.131 35.2746C130.566 34.7937 129.907 34.4348 129.196 34.2205C128.413 33.9893 127.6 33.8756 126.784 33.8832C125.886 33.8741 124.995 34.0329 124.156 34.3517C123.402 34.6322 122.704 35.0446 122.094 35.5697C121.534 36.0556 121.059 36.632 120.689 37.275C120.57 37.4802 120.466 37.693 120.375 37.9121C120.312 37.6322 120.226 37.358 120.118 37.0923C119.841 36.3976 119.403 35.7792 118.839 35.2886C118.276 34.8068 117.618 34.4478 116.908 34.2345C116.124 34.0033 115.309 33.8897 114.491 33.8972C113.571 33.8864 112.656 34.0452 111.793 34.3657C111.035 34.6442 110.336 35.0621 109.732 35.5978C109.18 36.0905 108.715 36.6716 108.354 37.3171C108.185 37.6311 108.042 37.9586 107.928 38.2963V34.2205H104.236V48.3452H107.928V39.9359C108.086 39.5459 108.307 39.1849 108.584 38.8678C109.118 38.2588 109.776 37.7702 110.514 37.4343C111.35 37.0455 112.262 36.8501 113.184 36.8627C114.49 36.8627 115.427 37.1422 115.995 37.7013C116.563 38.2603 116.852 39.1364 116.862 40.3295V48.317H120.553V39.6783C120.553 39.5471 120.553 39.43 120.553 39.3035C120.655 39.1527 120.764 39.0073 120.881 38.8678C121.417 38.2599 122.074 37.7715 122.811 37.4343C123.649 37.0449 124.563 36.8496 125.486 36.8627C126.792 36.8627 127.738 37.1422 128.325 37.7013C128.912 38.2603 129.206 39.1364 129.206 40.3295V48.317H132.902V39.6783C132.922 38.789 132.762 37.9048 132.434 37.0782C132.144 36.3848 131.698 35.7675 131.131 35.2746Z" fill="white"/>
<path d="M143.278 44.5655L138.603 34.1934H134.682L141.465 48.1868L138.345 54.0007H142.182L151.959 34.1934H148.01L143.278 44.5655Z" fill="white"/>
<path d="M170.117 34.1934H165.625L161.717 38.7704L157.501 34.1934H152.98L159.586 41.1737L152.98 48.318H157.501L161.638 43.4224L165.995 48.318H170.515L163.774 41.0051L170.117 34.1934Z" fill="white"/>
<path d="M185.146 34.7639C183.688 34.1298 182.107 33.8289 180.518 33.8832C178.887 33.8454 177.267 34.1453 175.758 34.7639C174.478 35.2891 173.377 36.1724 172.587 37.3078C171.809 38.4908 171.413 39.8841 171.453 41.2992C171.413 42.7141 171.82 44.1055 172.615 45.2766C173.435 46.4056 174.559 47.2781 175.857 47.7924C177.375 48.3947 178.997 48.6893 180.63 48.659C182.022 48.6949 183.409 48.4726 184.72 48.0032C185.741 47.635 186.655 47.0202 187.381 46.2136C188.02 45.4833 188.437 44.5864 188.585 43.6276H185.006C184.725 44.3314 184.18 44.8979 183.488 45.2063C182.57 45.6412 181.561 45.85 180.546 45.8154C179.605 45.8396 178.67 45.6656 177.801 45.3047C177.085 44.9982 176.46 44.5146 175.983 43.8993C175.546 43.3269 175.267 42.6502 175.173 41.9364H188.641C188.788 40.3868 188.53 38.8257 187.892 37.4061C187.303 36.2389 186.335 35.307 185.146 34.7639ZM175.374 39.7907C175.644 38.884 176.229 38.1033 177.023 37.5889C178.026 37.0122 179.161 36.704 180.318 36.6942C181.475 36.6843 182.616 36.9731 183.628 37.5326C184.01 37.7817 184.33 38.1145 184.564 38.5058C184.798 38.8971 184.939 39.3365 184.978 39.7907H175.374Z" fill="white"/>
<path d="M195.372 28.5098H191.681V48.3171H195.372V28.5098Z" fill="white"/>
<path d="M203.074 28.5098H199.383V48.3171H203.074V28.5098Z" fill="white"/>
<path d="M210.72 34.1973H207.028V48.3219H210.72V34.1973Z" fill="white"/>
<path d="M211.033 28H206.742V31.2372H211.033V28Z" fill="white"/>
<path d="M227.913 34.1937V38.4382C227.827 38.12 227.722 37.8072 227.599 37.5012C227.169 36.4108 226.409 35.4821 225.425 34.8449C224.238 34.1389 222.87 33.7984 221.49 33.8658C220.112 33.8454 218.75 34.1673 217.527 34.8028C216.387 35.3912 215.429 36.2807 214.758 37.3747C214.09 38.5559 213.739 39.8898 213.739 41.2467C213.739 42.6037 214.09 43.9375 214.758 45.1187C215.414 46.212 216.357 47.1047 217.485 47.7C218.66 48.3297 219.975 48.652 221.307 48.637C222.415 48.667 223.514 48.4376 224.517 47.967C225.364 47.5557 226.102 46.9506 226.671 46.2009C227.214 45.4827 227.628 44.6759 227.894 43.8163L227.922 43.7086V44.6783C227.922 45.2311 227.922 45.7886 227.979 46.3555C228.035 46.9223 228.082 47.5782 228.175 48.3184H231.614V34.1937H227.913ZM227.257 43.6289C226.801 44.3308 226.149 44.8843 225.383 45.2218C224.47 45.6206 223.48 45.8141 222.483 45.7886C221.584 45.8081 220.693 45.6138 219.883 45.2218C219.165 44.8685 218.56 44.3217 218.136 43.643C217.708 42.9278 217.492 42.1057 217.513 41.2725C217.487 40.6645 217.59 40.0579 217.815 39.4927C218.04 38.9274 218.383 38.4163 218.82 37.9931C219.691 37.1686 220.912 36.7563 222.483 36.7563C223.471 36.7332 224.453 36.9118 225.369 37.281C226.132 37.5969 226.784 38.1316 227.243 38.8176C227.707 39.5521 227.94 40.4088 227.913 41.2772C227.927 42.1081 227.699 42.9251 227.257 43.6289Z" fill="white"/>
<path d="M96.6093 47.5588L98.4363 44.2794L96.3657 40.7471L98.4363 37.2991L96.5624 33.8276H92.4024L90.2943 30.3047H86.4762L84.415 33.8698H80.3299L78.3857 37.2194L80.5782 40.7471L78.3857 44.4434L80.3252 47.6291H84.415L86.4762 51.1942H90.3739L92.3509 47.54L96.6093 47.5588ZM88.3595 48.7534L86.0171 44.6402H81.4449L83.8575 40.8314L81.4495 36.943H85.9984L88.3408 32.9329L90.5285 36.8962H95.2132L92.8053 40.7705L95.2132 44.6402H90.5004L88.3595 48.7534Z" fill="white"/>
<defs>
<clipPath id="clip0_18_348">
<rect width="319" height="43" fill="white" transform="translate(1043 94)"/>
</clipPath>
</defs>
</svg>
